HIERARCHY
ROOT Hips
{
	OFFSET 0.000000 89.005402 0.000000
	CHANNELS 6 Xposition Yposition Zposition Xrotation Yrotation Zrotation
	JOINT Spine
	{
		OFFSET 0.116900 10.681000 0.373400
		CHANNELS 3 Xrotation Yrotation Zrotation
		JOINT Spine1
		{
			OFFSET 0.000000 13.840401 0.053500
			CHANNELS 3 Xrotation Yrotation Zrotation
			JOINT Spine2
			{
				OFFSET 0.000000 14.712700 -0.366200
				CHANNELS 3 Xrotation Yrotation Zrotation
				JOINT Neck
				{
					OFFSET 0.000000 35.415497 -3.314200
					CHANNELS 3 Xrotation Yrotation Zrotation
					JOINT Head
					{
						OFFSET 0.000000 16.899200 1.218300
						CHANNELS 3 Xrotation Yrotation Zrotation
						JOINT HeadTop_End
						{
							OFFSET 0.000000 22.206207 2.192500
							CHANNELS 3 Xrotation Yrotation Zrotation
							End Site
							{
								OFFSET 0.000000 22.314178 0.000000
							}
						}
					}
				}
				JOINT LeftShoulder
				{
					OFFSET 12.896400 26.716293 -4.548400
					CHANNELS 3 Xrotation Yrotation Zrotation
					JOINT LeftArm
					{
						OFFSET 19.027000 -4.857010 -1.718400
						CHANNELS 3 Xrotation Yrotation Zrotation
						JOINT LeftForeArm
						{
							OFFSET 24.179897 0.000000 0.000000
							CHANNELS 3 Xrotation Yrotation Zrotation
							JOINT LeftHand
							{
								OFFSET 27.156403 0.000000 0.000000
								CHANNELS 3 Xrotation Yrotation Zrotation
								JOINT LeftHandIndex1
								{
									OFFSET 16.441200 0.000000 0.000000
									CHANNELS 3 Xrotation Yrotation Zrotation
									JOINT LeftHandIndex2
									{
										OFFSET 4.821899 0.000000 0.000000
										CHANNELS 3 Xrotation Yrotation Zrotation
										JOINT LeftHandIndex3
										{
											OFFSET 6.386497 0.000000 0.000000
											CHANNELS 3 Xrotation Yrotation Zrotation
											JOINT LeftHandIndex4
											{
												OFFSET 5.188988 0.000000 0.000000
												CHANNELS 3 Xrotation Yrotation Zrotation
												End Site
												{
													OFFSET -0.178703 5.185913 0.000177
												}
											}
										}
									}
								}
								JOINT LeftHandThumb1
								{
									OFFSET 6.534897 -5.032593 5.900300
									CHANNELS 3 Xrotation Yrotation Zrotation
									JOINT LeftHandThumb2
									{
										OFFSET 3.818176 -2.204422 2.204423
										CHANNELS 3 Xrotation Yrotation Zrotation
										JOINT LeftHandThumb3
										{
											OFFSET 3.252098 -1.877594 1.877601
											CHANNELS 3 Xrotation Yrotation Zrotation
											JOINT LeftHandThumb4
											{
												OFFSET 5.251778 -3.032120 3.032117
												CHANNELS 3 Xrotation Yrotation Zrotation
												End Site
												{
													OFFSET 0.000023 6.780014 0.000000
												}
											}
										}
									}
								}
							}
						}
					}
				}
				JOINT RightShoulder
				{
					OFFSET -12.896300 26.716293 -4.548400
					CHANNELS 3 Xrotation Yrotation Zrotation
					JOINT RightArm
					{
						OFFSET -19.027000 -4.857010 -1.718400
						CHANNELS 3 Xrotation Yrotation Zrotation
						JOINT RightForeArm
						{
							OFFSET -24.179897 0.000000 0.000000
							CHANNELS 3 Xrotation Yrotation Zrotation
							JOINT RightHand
							{
								OFFSET -27.156403 0.000000 0.000000
								CHANNELS 3 Xrotation Yrotation Zrotation
								JOINT RightHandThumb1
								{
									OFFSET -6.591202 -4.852203 5.988100
									CHANNELS 3 Xrotation Yrotation Zrotation
									JOINT RightHandThumb2
									{
										OFFSET -3.818176 -2.204422 2.204423
										CHANNELS 3 Xrotation Yrotation Zrotation
										JOINT RightHandThumb3
										{
											OFFSET -3.252098 -1.877594 1.877601
											CHANNELS 3 Xrotation Yrotation Zrotation
											JOINT RightHandThumb4
											{
												OFFSET -5.251778 -3.032120 3.032117
												CHANNELS 3 Xrotation Yrotation Zrotation
												End Site
												{
													OFFSET -0.000023 6.780014 0.000000
												}
											}
										}
									}
								}
								JOINT RightHandIndex1
								{
									OFFSET -16.029404 0.000000 0.000000
									CHANNELS 3 Xrotation Yrotation Zrotation
									JOINT RightHandIndex2
									{
										OFFSET -5.213303 0.000000 0.000000
										CHANNELS 3 Xrotation Yrotation Zrotation
										JOINT RightHandIndex3
										{
											OFFSET -6.386528 0.000000 0.000000
											CHANNELS 3 Xrotation Yrotation Zrotation
											JOINT RightHandIndex4
											{
												OFFSET -5.189026 0.000000 0.000000
												CHANNELS 3 Xrotation Yrotation Zrotation
												End Site
												{
													OFFSET 0.236702 5.183624 0.001972
												}
											}
										}
									}
								}
							}
						}
					}
				}
			}
		}
	}
	JOINT LeftUpLeg
	{
		OFFSET 14.073000 -7.904099 -1.463000
		CHANNELS 3 Xrotation Yrotation Zrotation
		JOINT LeftLeg
		{
			OFFSET -0.109806 -34.073280 4.093200
			CHANNELS 3 Xrotation Yrotation Zrotation
			JOINT LeftFoot
			{
				OFFSET 0.109806 -29.899420 -6.319000
				CHANNELS 3 Xrotation Yrotation Zrotation
				JOINT LeftToeBase
				{
					OFFSET 1.551100 -14.988700 20.535801
					CHANNELS 3 Xrotation Yrotation Zrotation
					JOINT LeftToe_End
					{
						OFFSET 0.221200 0.570800 13.248301
						CHANNELS 3 Xrotation Yrotation Zrotation
						End Site
						{
							OFFSET 0.000000 13.262435 0.000000
						}
					}
				}
			}
		}
	}
	JOINT RightUpLeg
	{
		OFFSET -13.839300 -7.904099 -1.463000
		CHANNELS 3 Xrotation Yrotation Zrotation
		JOINT RightLeg
		{
			OFFSET 0.109694 -34.073219 4.093300
			CHANNELS 3 Xrotation Yrotation Zrotation
			JOINT RightFoot
			{
				OFFSET -0.109694 -29.899384 -6.319200
				CHANNELS 3 Xrotation Yrotation Zrotation
				JOINT RightToeBase
				{
					OFFSET -1.551100 -14.988700 20.535801
					CHANNELS 3 Xrotation Yrotation Zrotation
					JOINT RightToe_End
					{
						OFFSET -0.221200 0.570900 13.248299
						CHANNELS 3 Xrotation Yrotation Zrotation
						End Site
						{
							OFFSET 0.000000 13.262440 0.000000
						}
					}
				}
			}
		}
	}
}
MOTION
Frames: 8
Frame Time: 0.033333
11.821772 77.540344 193.353043 -2.916182 321.502605 -10.140649 1.179324 1.999363 4.831039 -1.571548 1.632697 4.740690 -1.549672 1.690873 4.725962 -4.946861 4.292396 1.636051 17.003834 13.302053 -27.708238 -0.000000 -0.000000 -0.000000 1.032322 -60.038340 27.606279 -82.760077 -13.877345 -55.439378 -0.000001 -38.267849 -14.616844 35.339733 -18.636183 5.507815 -3.143057 5.793116 -69.694444 2.355854 0.727676 -67.894990 0.273631 -2.387944 -56.641065 0.000001 0.000001 -0.000001 2.849785 14.337639 -13.385328 14.864964 16.455789 16.302845 84.827063 11.024302 -9.969565 -0.000000 0.000003 -0.000001 -10.075081 19.235049 -11.707046 -44.925487 -3.191808 50.831641 -0.001173 93.786024 -26.954416 -35.746318 42.325709 -11.388816 1.468365 -1.389844 -3.432834 21.228510 -32.917588 4.315565 32.950677 -34.300681 -0.499263 0.000000 -0.000001 -0.000001 5.894087 -2.024689 42.562201 -0.009625 -0.081484 109.050370 1.127139 -1.465266 35.607907 0.000002 -0.000002 -0.000000 -42.624902 -5.514196 16.860334 39.648125 15.426273 10.853223 8.142885 0.176270 -13.047039 -2.681736 -0.471525 -2.729482 -0.000000 0.000000 -0.000000 9.701106 -26.621417 -16.499172 27.271101 -15.488673 5.113653 -17.623269 -5.626326 18.259112 -2.390621 -1.000736 1.051803 -0.000000 -0.000000 0.000000 
13.339937 75.077393 195.127319 -3.505196 333.377790 -11.492745 3.565070 3.610080 6.243974 -0.394814 3.094566 5.331538 -0.341546 3.160260 5.285116 -4.938659 2.552000 -0.944336 15.599069 6.298802 -28.090094 0.000000 -0.000001 -0.000002 -0.746511 -59.374787 21.775948 -73.398005 -18.682589 -53.226858 -0.000002 -35.735464 -14.887891 21.004753 -2.513060 -0.035162 -3.223978 5.998985 -69.926486 2.266579 0.853273 -67.088953 0.053644 -2.345730 -57.491253 0.000001 0.000001 -0.000000 2.440150 13.846143 -13.113249 15.424626 16.999321 15.632300 84.766213 11.111072 -10.008380 -0.000000 -0.000000 -0.000003 4.445046 25.784104 -19.557190 -53.611384 -12.367449 50.383123 0.000610 82.990097 -27.882255 -60.553288 27.977305 14.446256 1.757774 -1.196546 -3.724083 20.966096 -33.250604 4.764956 32.919080 -34.687761 -0.263963 -0.000001 0.000001 0.000003 6.302085 -1.883510 42.139962 -0.017049 -0.090366 109.195020 1.144613 -1.455598 35.520976 -0.000000 -0.000000 0.000000 -47.577151 -10.829256 7.598941 44.144254 21.443497 13.783047 8.411304 0.100018 -14.629384 -1.015923 -0.824795 -1.476057 0.000000 0.000000 0.000000 10.937190 -26.851724 -12.183070 39.765969 -18.134540 4.303779 -28.767299 -4.681996 9.480909 -5.050317 -0.864520 2.396314 -0.000000 0.000002 -0.000001 
14.137337 73.417198 195.953369 -4.419476 340.552822 -11.651761 7.102331 6.392123 6.681784 1.244413 4.758431 5.314868 1.320342 4.807484 5.230351 -6.557382 0.678234 -2.006831 13.134107 1.311235 -27.626001 -0.000001 0.000000 -0.000000 -3.680963 -55.593608 14.584655 -58.400849 -13.106228 -51.557837 0.000013 -52.496158 -18.617014 -16.400491 16.006799 7.995115 -3.303266 6.205607 -70.158467 2.174252 0.976513 -66.282649 -0.165088 -2.298502 -58.341495 -0.000003 0.000001 0.000000 2.032183 13.355223 -12.844001 15.989423 17.534103 14.950970 84.705349 11.197959 -10.047122 -0.000001 -0.000001 -0.000001 22.116417 29.097606 -32.067325 -65.374227 -16.251870 48.183344 0.000170 69.405862 -25.823803 -73.493191 -4.757227 32.529490 2.048340 -1.005679 -4.016540 20.708640 -33.589337 5.213635 32.888426 -35.075525 -0.028786 -0.000002 0.000000 -0.000001 6.712696 -1.750479 41.718266 -0.024432 -0.099280 109.339710 1.162077 -1.445972 35.434031 0.000003 0.000000 0.000002 -50.658765 -10.930726 2.226597 48.414290 19.202059 13.586640 6.877945 0.146501 -12.288584 -0.350685 -1.292362 -0.534449 0.000000 0.000000 -0.000000 10.318362 -24.094881 -5.925865 47.776524 -29.130603 -1.215700 -34.136462 -3.640107 5.516023 -5.975236 -0.969338 3.761110 -0.000000 -0.000001 0.000000 
13.976933 72.900414 196.263336 -4.067326 344.189761 -9.900626 10.992938 9.718820 5.364375 2.919076 6.567240 4.398673 3.009437 6.584660 4.283899 -10.367629 -1.263012 -1.922773 8.690225 -2.721846 -25.400090 0.000000 0.000000 0.000002 -6.226655 -50.007377 7.387464 -44.450489 -7.181456 -51.449585 -0.000035 -62.434636 -14.959082 -62.153123 9.801165 9.231022 -3.380974 6.413012 -70.390365 2.078897 1.097269 -65.476195 -0.382568 -2.247876 -59.191738 -0.000000 -0.000000 -0.000001 1.625884 12.864812 -12.577403 16.559425 18.059958 14.258890 84.644560 11.284862 -10.085742 0.000002 0.000000 -0.000001 31.694219 33.022243 -41.007500 -66.593969 -12.246526 47.469531 0.000133 58.673538 -23.477903 -72.167062 -24.061565 26.448653 2.340051 -0.817259 -4.310227 20.456205 -33.933729 5.661653 32.858739 -35.463961 0.206374 0.000002 0.000000 0.000002 7.125324 -1.621160 41.297158 -0.031755 -0.108288 109.484353 1.179563 -1.436323 35.347096 0.000001 -0.000002 -0.000003 -52.140722 -7.299077 1.229084 49.835427 14.605060 10.674456 5.944300 0.003359 -8.026713 -0.359390 -1.379840 -0.238583 0.000000 0.000000 0.000000 7.975493 -20.611563 -2.365697 51.052351 -39.110858 -4.598960 -34.512584 -3.896484 4.627892 -6.253586 -1.208414 4.198187 -0.000000 0.000001 0.000002 
12.944482 73.336067 196.661224 -1.046160 347.525052 -6.641114 14.340776 12.475010 2.632369 4.154626 8.451274 2.812317 4.256214 8.440677 2.667507 -16.473021 -3.012072 -1.703101 2.053483 -7.097401 -21.541262 0.000000 -0.000000 -0.000000 -7.521574 -44.739139 1.267191 -36.922801 -3.795743 -51.226132 -0.000014 -66.812145 -6.743503 -103.690147 28.049813 6.725680 -3.456995 6.621123 -70.622155 1.980607 1.215535 -64.669508 -0.598433 -2.190141 -60.041987 0.000000 -0.000001 -0.000000 1.220960 12.375202 -12.313634 17.134604 18.576764 13.556040 84.583813 11.371830 -10.124221 0.000000 0.000001 -0.000000 32.154055 40.712869 -41.672337 -63.071087 -6.389436 46.866456 0.000052 49.626382 -16.636825 -85.236212 -32.708608 6.972715 2.632907 -0.631306 -4.605061 20.208844 -34.283718 6.108987 32.830049 -35.853049 0.441496 0.000002 0.000002 0.000002 7.540102 -1.497472 40.876695 -0.039013 -0.117295 109.629010 1.197046 -1.426670 35.260169 0.000001 -0.000002 -0.000001 -53.862988 -4.401589 0.461823 47.603741 10.325269 7.486360 6.880832 -0.281622 -5.026081 -0.359394 -1.379839 -0.238583 0.000000 0.000000 0.000000 5.314280 -19.419268 -1.616703 51.927507 -44.176079 -4.115154 -33.931048 -4.686989 5.621397 -5.828276 -1.449140 3.628943 0.000001 0.000000 0.000001 
11.350738 74.262093 197.607864 4.326064 353.492561 -3.290655 16.710010 14.112755 -0.277282 4.866275 10.321023 1.237398 4.959758 10.297367 1.052742 -23.989019 -4.272551 -2.296846 -6.106245 -12.003127 -17.220138 -0.000000 -0.000000 0.000001 -8.066783 -41.561237 -3.864402 -24.995810 -8.320209 -48.262738 0.000036 -72.599713 5.786175 -134.035332 44.290898 26.165541 -3.531387 6.829990 -70.853855 1.879397 1.331227 -63.862651 -0.812676 -2.126951 -60.892195 -0.000003 0.000000 -0.000001 0.817295 11.886470 -12.052624 17.714973 19.084274 12.842403 84.523086 11.458863 -10.162596 -0.000001 0.000001 -0.000000 36.211252 44.716391 -37.678865 -68.131096 1.925211 42.906716 0.000047 36.823486 -7.707979 -108.211828 -38.378116 -10.292605 2.926871 -0.447824 -4.901112 19.966602 -34.639222 6.555689 32.802369 -36.242794 0.676603 -0.000001 0.000001 0.000001 7.957173 -1.381362 40.456918 -0.046245 -0.126315 109.773680 1.214519 -1.417042 35.173220 0.000000 -0.000001 -0.000001 -56.386729 -3.198656 -2.865700 42.031850 6.007306 6.020512 9.820861 -0.373709 -3.830936 -0.359404 -1.379839 -0.238584 -0.000000 -0.000000 -0.000000 4.019799 -18.532011 -0.040391 49.942244 -49.211096 -1.225645 -32.756576 -5.683993 7.783907 -5.690612 -1.736158 3.186715 -0.000002 0.000000 -0.000003 
9.630131 75.083633 199.167999 10.448846 362.684329 -1.315998 18.279249 15.032637 -2.300790 5.332639 11.992382 0.251919 5.391224 11.968936 0.038571 -31.094590 -4.938617 -3.936710 -14.729366 -16.205582 -13.798420 0.000000 0.000000 0.000000 -8.620493 -40.728264 -8.221887 -6.364743 -20.515245 -42.024798 0.000095 -75.780471 18.659134 -135.747742 42.816547 29.516813 -3.604165 7.039578 -71.085515 1.775328 1.444333 -63.055603 -1.025161 -2.058315 -61.742315 -0.000005 0.000001 -0.000001 0.414808 11.398611 -11.794352 18.300546 19.582368 12.118037 84.462372 11.545898 -10.200827 -0.000002 0.000002 0.000002 40.602777 46.920374 -30.972350 -67.204813 15.073618 37.013762 0.000006 22.637655 -5.341734 -108.995585 -49.809875 1.416148 3.221973 -0.266842 -5.198308 19.729543 -35.000188 7.001764 32.775735 -36.633177 0.911749 -0.000000 0.000001 0.000000 8.376325 -1.271529 40.037923 -0.053448 -0.135396 109.918357 1.231983 -1.407422 35.086265 -0.000001 -0.000001 0.000000 -59.016352 -3.207885 -8.608511 34.616464 0.866393 5.800573 13.979428 -0.447903 -3.428383 -0.359388 -1.379840 -0.238585 -0.000000 0.000001 0.000000 5.103606 -18.565646 3.307507 44.807759 -55.188885 2.908733 -32.132236 -5.548435 8.008662 -7.136935 -2.326553 4.258555 -0.000001 -0.000002 -0.000000 
8.101466 75.524513 201.081833 16.074193 373.433599 -1.271629 19.477463 15.894289 -3.036073 5.771693 13.234718 0.089941 5.790980 13.220628 -0.129707 -35.962274 -5.192822 -6.029186 -22.670523 -18.262326 -11.914700 -0.000000 -0.000001 -0.000000 -9.328780 -40.862563 -11.503836 14.069040 -32.823567 -34.123471 0.000155 -75.585558 26.947029 -121.867582 27.905974 20.657878 -3.675281 7.249864 -71.317065 1.668470 1.554710 -62.248302 -1.235788 -1.984316 -62.592345 -0.000001 -0.000001 0.000003 0.013459 10.911650 -11.538787 18.890463 20.071141 11.382689 84.401727 11.633034 -10.238956 -0.000002 -0.000003 -0.000001 41.222258 49.442664 -23.420124 -51.349181 22.582786 28.873733 0.000042 21.511831 -10.928610 -90.795084 -50.337791 25.374361 3.518192 -0.088346 -5.496647 19.497711 -35.366576 7.447193 32.750159 -37.024212 1.146955 -0.000004 -0.000002 -0.000000 8.797479 -1.168001 39.619749 -0.060572 -0.144521 110.063027 1.249464 -1.397809 34.999320 0.000000 -0.000002 0.000000 -60.613981 -2.887556 -14.390046 27.154460 -6.344208 4.614783 18.261709 -0.371793 -2.459153 -0.359393 -1.379839 -0.238584 -0.000000 -0.000000 -0.000000 7.503120 -18.572101 7.663067 37.609716 -61.470009 7.008664 -32.292417 -4.017981 5.162256 -10.555224 -3.459063 7.230828 0.000001 0.000001 0.000001 
